<?xml version="1.0" encoding="utf-8"?>
<svg version="1.1" width="509" height="713" viewBox="0 0 509 713"
	xmlns="http://www.w3.org/2000/svg"
	xmlns:xlink="http://www.w3.org/1999/xlink"
	xml:space="preserve">
	<rect fill="#004487" width="509" height="713"/>
	<path fill="#fff" d="M141.379,665c-6.535,0-8.093-11-0.379-11c44.472-1.273,35.522-11.865,38-46V424L72,550h94.937v33H40.682
		c-14.57,0-16.807-7.153-6.283-19.384L210,354.216c3.867-4.353,7.226-6.146,10.448-6.08c7.722,0.312,5.303,5.335,18.413,4.235
		c23.043-0.747,90.521-2.829,118.61,6.141c56.653,11.331,114.349,52.275,116.56,145.889c1.075,44.68-19.094,94.247-59.535,126.093
		c-29.57,23.285-69.971,35.781-120.86,36.506c-18.271,0.26-57.543-2.606-91.547-2.928C167.286,663.742,163.327,665,141.379,665z
		 M257,550c6.354,0,12.362-3.524,16.209-4.153c3.066-0.502,5.134,2.377,3.791,9.257c-1.344,6.879-5,18.452-5,18.452
		c-1.493,5.673-4.329,9.444-12.839,9.444H230c0,0-0.995,42.208,7.216,48.983c14.929,14.126,36.927,14.07,64.163,14.07
		c32.363,0,67.96-12.721,89.488-36.395c20.859-22.938,28.179-56.097,26.977-101.767c-1.581-60.093-33.091-100.038-79.884-122.046
		c-41.225-19.39-96.86-13.023-96.86-13.023c-7.417,0.638-11.885,3.638-12.1,10.046V550H257z"/>
</svg>
